<svg class="acss-b7qrtc" height="48" viewBox="0 0 24 24" width="48" xmlns="http://www.w3.org/2000/svg"><path d="M6 2a2 2 0 00-2 2v16a2 2 0 002 2h12a2 2 0 002-2V8l-6-6H6z" fill="#2f6d3f"></path><path d="M14 2l6 6h-4a2 2 0 01-2-2V2z" fill="#fff" fill-opacity=".5"></path><text fill="#fff" font-size="6" font-weight="bold" text-anchor="middle" x="50%" y="70%">XLS</text><path d="M6 2a2 2 0 00-2 2v16a2 2 0 002 2h12a2 2 0 002-2V8l-6-6H6z" fill="transparent" stroke="rgba(255, 255, 255, 0.10)" stroke-width="0.5"></path></svg>